<mxfile host="app.diagrams.net" modified="2022-12-06T11:11:47.692Z" agent="5.0 (Windows NT 10.0; Win64; x64) AppleWebKit/537.36 (KHTML, like Gecko) Chrome/107.0.0.0 Safari/537.36" etag="VjAJx_PtE44eSa1DWevc" version="20.3.1" type="github">
  <diagram id="1PG_mUHAkVhkRR0OiA2S" name="Page-1">
    <mxGraphModel dx="1955" dy="1170" grid="0" gridSize="10" guides="1" tooltips="1" connect="1" arrows="1" fold="1" page="1" pageScale="1" pageWidth="850" pageHeight="1100" math="0" shadow="0">
      <root>
        <mxCell id="0" />
        <mxCell id="1" parent="0" />
        <mxCell id="N7lQgFKjf1Fr5pA0-zuc-1" value="&lt;font style=&quot;font-size: 14px;&quot;&gt;&lt;b&gt;Units&lt;/b&gt;&lt;/font&gt;" style="text;html=1;align=center;verticalAlign=middle;resizable=0;points=[];autosize=1;strokeColor=#82b366;fillColor=#d5e8d4;strokeWidth=4;" vertex="1" parent="1">
          <mxGeometry x="136" y="423.6" width="60" height="30" as="geometry" />
        </mxCell>
        <mxCell id="N7lQgFKjf1Fr5pA0-zuc-3" value="&lt;b&gt;&lt;font style=&quot;font-size: 20px;&quot;&gt;Automated Framework for Finance Volume Workstream&lt;/font&gt;&lt;/b&gt;" style="text;html=1;align=center;verticalAlign=middle;resizable=0;points=[];autosize=1;strokeColor=none;fillColor=none;" vertex="1" parent="1">
          <mxGeometry x="109" y="40" width="550" height="40" as="geometry" />
        </mxCell>
        <mxCell id="N7lQgFKjf1Fr5pA0-zuc-13" style="edgeStyle=orthogonalEdgeStyle;rounded=0;orthogonalLoop=1;jettySize=auto;html=1;entryX=0;entryY=0.761;entryDx=0;entryDy=0;entryPerimeter=0;fontSize=14;" edge="1" parent="1" source="N7lQgFKjf1Fr5pA0-zuc-4" target="N7lQgFKjf1Fr5pA0-zuc-12">
          <mxGeometry relative="1" as="geometry">
            <Array as="points">
              <mxPoint x="256" y="513" />
              <mxPoint x="256" y="731" />
            </Array>
          </mxGeometry>
        </mxCell>
        <mxCell id="N7lQgFKjf1Fr5pA0-zuc-17" value="Fetch the data from" style="edgeLabel;html=1;align=center;verticalAlign=middle;resizable=0;points=[];fontSize=14;" vertex="1" connectable="0" parent="N7lQgFKjf1Fr5pA0-zuc-13">
          <mxGeometry x="-0.2665" y="1" relative="1" as="geometry">
            <mxPoint as="offset" />
          </mxGeometry>
        </mxCell>
        <mxCell id="N7lQgFKjf1Fr5pA0-zuc-4" value="SQL Server" style="aspect=fixed;html=1;points=[];align=center;image;fontSize=12;image=img/lib/azure2/general/Production_Ready_Database.svg;strokeWidth=4;" vertex="1" parent="1">
          <mxGeometry x="136" y="481" width="48" height="64" as="geometry" />
        </mxCell>
        <mxCell id="N7lQgFKjf1Fr5pA0-zuc-5" value="Excel data&lt;br&gt;(Editable)" style="shape=image;html=1;verticalAlign=top;verticalLabelPosition=bottom;labelBackgroundColor=#ffffff;imageAspect=0;aspect=fixed;image=https://cdn3.iconfinder.com/data/icons/document-icons-2/30/647702-excel-128.png;strokeWidth=4;fontSize=14;" vertex="1" parent="1">
          <mxGeometry x="393.6" y="481" width="50" height="50" as="geometry" />
        </mxCell>
        <mxCell id="N7lQgFKjf1Fr5pA0-zuc-14" style="edgeStyle=orthogonalEdgeStyle;rounded=0;orthogonalLoop=1;jettySize=auto;html=1;entryX=1.004;entryY=0.667;entryDx=0;entryDy=0;entryPerimeter=0;fontSize=14;" edge="1" parent="1" source="N7lQgFKjf1Fr5pA0-zuc-6" target="N7lQgFKjf1Fr5pA0-zuc-12">
          <mxGeometry relative="1" as="geometry">
            <Array as="points">
              <mxPoint x="576" y="513" />
              <mxPoint x="576" y="725" />
            </Array>
          </mxGeometry>
        </mxCell>
        <mxCell id="N7lQgFKjf1Fr5pA0-zuc-16" value="Fetch the data from" style="edgeLabel;html=1;align=center;verticalAlign=middle;resizable=0;points=[];fontSize=14;" vertex="1" connectable="0" parent="N7lQgFKjf1Fr5pA0-zuc-14">
          <mxGeometry x="-0.216" y="-1" relative="1" as="geometry">
            <mxPoint as="offset" />
          </mxGeometry>
        </mxCell>
        <mxCell id="N7lQgFKjf1Fr5pA0-zuc-6" value="SQL Server" style="aspect=fixed;html=1;points=[];align=center;image;fontSize=12;image=img/lib/azure2/general/Production_Ready_Database.svg;strokeWidth=4;" vertex="1" parent="1">
          <mxGeometry x="656" y="481" width="48" height="64" as="geometry" />
        </mxCell>
        <mxCell id="N7lQgFKjf1Fr5pA0-zuc-33" style="edgeStyle=orthogonalEdgeStyle;rounded=0;orthogonalLoop=1;jettySize=auto;html=1;fontSize=14;" edge="1" parent="1" source="N7lQgFKjf1Fr5pA0-zuc-7">
          <mxGeometry relative="1" as="geometry">
            <mxPoint x="416" y="240" as="targetPoint" />
          </mxGeometry>
        </mxCell>
        <mxCell id="N7lQgFKjf1Fr5pA0-zuc-34" value="Pull the excel whenever&amp;nbsp;&lt;br&gt;updated with new data" style="edgeLabel;html=1;align=center;verticalAlign=middle;resizable=0;points=[];fontSize=14;" vertex="1" connectable="0" parent="N7lQgFKjf1Fr5pA0-zuc-33">
          <mxGeometry x="-0.2766" y="1" relative="1" as="geometry">
            <mxPoint as="offset" />
          </mxGeometry>
        </mxCell>
        <mxCell id="N7lQgFKjf1Fr5pA0-zuc-7" value="" style="shadow=0;dashed=0;html=1;strokeColor=none;fillColor=#EF8F21;labelPosition=center;verticalLabelPosition=bottom;verticalAlign=top;align=center;outlineConnect=0;shape=mxgraph.veeam.ms_sharepoint;strokeWidth=4;fontSize=14;" vertex="1" parent="1">
          <mxGeometry x="393.6" y="410" width="44.8" height="51" as="geometry" />
        </mxCell>
        <mxCell id="N7lQgFKjf1Fr5pA0-zuc-8" value="" style="endArrow=none;dashed=1;html=1;dashPattern=1 3;strokeWidth=2;rounded=0;fontSize=14;startArrow=none;" edge="1" parent="1">
          <mxGeometry width="50" height="50" relative="1" as="geometry">
            <mxPoint x="336" y="571" as="sourcePoint" />
            <mxPoint x="336" y="411" as="targetPoint" />
            <Array as="points" />
          </mxGeometry>
        </mxCell>
        <mxCell id="N7lQgFKjf1Fr5pA0-zuc-15" style="edgeStyle=orthogonalEdgeStyle;rounded=0;orthogonalLoop=1;jettySize=auto;html=1;entryX=0.397;entryY=0.015;entryDx=0;entryDy=0;entryPerimeter=0;fontSize=14;" edge="1" parent="1" source="N7lQgFKjf1Fr5pA0-zuc-9" target="N7lQgFKjf1Fr5pA0-zuc-12">
          <mxGeometry relative="1" as="geometry" />
        </mxCell>
        <mxCell id="N7lQgFKjf1Fr5pA0-zuc-18" value="Fetch the data from" style="edgeLabel;html=1;align=center;verticalAlign=middle;resizable=0;points=[];fontSize=14;" vertex="1" connectable="0" parent="N7lQgFKjf1Fr5pA0-zuc-15">
          <mxGeometry x="-0.2339" y="1" relative="1" as="geometry">
            <mxPoint as="offset" />
          </mxGeometry>
        </mxCell>
        <mxCell id="N7lQgFKjf1Fr5pA0-zuc-9" value="Common SharePoint Site" style="text;html=1;align=center;verticalAlign=middle;resizable=0;points=[];autosize=1;strokeColor=none;fillColor=none;fontSize=14;" vertex="1" parent="1">
          <mxGeometry x="328.6" y="571" width="180" height="30" as="geometry" />
        </mxCell>
        <mxCell id="N7lQgFKjf1Fr5pA0-zuc-10" value="" style="endArrow=none;dashed=1;html=1;dashPattern=1 3;strokeWidth=2;rounded=0;fontSize=14;" edge="1" parent="1" target="N7lQgFKjf1Fr5pA0-zuc-9">
          <mxGeometry width="50" height="50" relative="1" as="geometry">
            <mxPoint x="336" y="411" as="sourcePoint" />
            <mxPoint x="336" y="411" as="targetPoint" />
            <Array as="points">
              <mxPoint x="496" y="411" />
              <mxPoint x="496" y="571" />
              <mxPoint x="336" y="571" />
            </Array>
          </mxGeometry>
        </mxCell>
        <mxCell id="N7lQgFKjf1Fr5pA0-zuc-11" value="&lt;font style=&quot;font-size: 14px;&quot;&gt;&lt;b&gt;SVP&lt;/b&gt;&lt;/font&gt;" style="text;html=1;align=center;verticalAlign=middle;resizable=0;points=[];autosize=1;strokeColor=#82b366;fillColor=#d5e8d4;strokeWidth=4;" vertex="1" parent="1">
          <mxGeometry x="631" y="423.6" width="50" height="30" as="geometry" />
        </mxCell>
        <mxCell id="N7lQgFKjf1Fr5pA0-zuc-20" style="edgeStyle=orthogonalEdgeStyle;rounded=0;orthogonalLoop=1;jettySize=auto;html=1;entryX=0.438;entryY=-0.051;entryDx=0;entryDy=0;entryPerimeter=0;fontSize=14;" edge="1" parent="1" source="N7lQgFKjf1Fr5pA0-zuc-12" target="N7lQgFKjf1Fr5pA0-zuc-19">
          <mxGeometry relative="1" as="geometry">
            <Array as="points">
              <mxPoint x="425" y="781" />
              <mxPoint x="215" y="781" />
            </Array>
          </mxGeometry>
        </mxCell>
        <mxCell id="N7lQgFKjf1Fr5pA0-zuc-21" value="Output from Data Bricks" style="edgeLabel;html=1;align=center;verticalAlign=middle;resizable=0;points=[];fontSize=14;" vertex="1" connectable="0" parent="N7lQgFKjf1Fr5pA0-zuc-20">
          <mxGeometry x="0.6279" y="2" relative="1" as="geometry">
            <mxPoint as="offset" />
          </mxGeometry>
        </mxCell>
        <mxCell id="N7lQgFKjf1Fr5pA0-zuc-12" value="Data Bricks" style="aspect=fixed;html=1;points=[];align=center;image;fontSize=12;image=img/lib/azure2/analytics/Azure_Databricks.svg;labelBorderColor=none;strokeColor=#82B366;strokeWidth=4;" vertex="1" parent="1">
          <mxGeometry x="396" y="681" width="58" height="65.73" as="geometry" />
        </mxCell>
        <mxCell id="N7lQgFKjf1Fr5pA0-zuc-30" style="edgeStyle=orthogonalEdgeStyle;rounded=0;orthogonalLoop=1;jettySize=auto;html=1;fontSize=14;" edge="1" parent="1" source="N7lQgFKjf1Fr5pA0-zuc-19" target="N7lQgFKjf1Fr5pA0-zuc-25">
          <mxGeometry relative="1" as="geometry" />
        </mxCell>
        <mxCell id="N7lQgFKjf1Fr5pA0-zuc-31" value="Pipeline for flow&lt;br&gt;&amp;nbsp;of data" style="edgeLabel;html=1;align=center;verticalAlign=middle;resizable=0;points=[];fontSize=14;" vertex="1" connectable="0" parent="N7lQgFKjf1Fr5pA0-zuc-30">
          <mxGeometry x="0.2479" y="-2" relative="1" as="geometry">
            <mxPoint x="-31" y="-2" as="offset" />
          </mxGeometry>
        </mxCell>
        <mxCell id="N7lQgFKjf1Fr5pA0-zuc-19" value="Cloud Storage account" style="aspect=fixed;html=1;points=[];align=center;image;fontSize=12;image=img/lib/azure2/general/Blob_Block.svg;labelBorderColor=none;strokeColor=#82B366;strokeWidth=4;" vertex="1" parent="1">
          <mxGeometry x="176" y="861" width="88" height="70.4" as="geometry" />
        </mxCell>
        <mxCell id="N7lQgFKjf1Fr5pA0-zuc-22" value="SQL Server" style="aspect=fixed;html=1;points=[];align=center;image;fontSize=12;image=img/lib/azure2/general/Production_Ready_Database.svg;strokeWidth=4;" vertex="1" parent="1">
          <mxGeometry x="736" y="861" width="48" height="64" as="geometry" />
        </mxCell>
        <mxCell id="N7lQgFKjf1Fr5pA0-zuc-26" style="edgeStyle=orthogonalEdgeStyle;rounded=0;orthogonalLoop=1;jettySize=auto;html=1;entryX=0.023;entryY=0.581;entryDx=0;entryDy=0;entryPerimeter=0;fontSize=14;" edge="1" parent="1" source="N7lQgFKjf1Fr5pA0-zuc-25" target="N7lQgFKjf1Fr5pA0-zuc-22">
          <mxGeometry relative="1" as="geometry" />
        </mxCell>
        <mxCell id="N7lQgFKjf1Fr5pA0-zuc-27" value="&lt;span style=&quot;color: rgba(0, 0, 0, 0); font-family: monospace; font-size: 0px; text-align: start; background-color: rgb(248, 249, 250);&quot;&gt;%3CmxGraphModel%3E%3Croot%3E%3CmxCell%20id%3D%220%22%2F%3E%3CmxCell%20id%3D%221%22%20parent%3D%220%22%2F%3E%3CmxCell%20id%3D%222%22%20value%3D%22Copy%26lt%3Bbr%26gt%3B%26amp%3Bnbsp%3Bdata%20to%20SQL%22%20style%3D%22edgeLabel%3Bhtml%3D1%3Balign%3Dcenter%3BverticalAlign%3Dmiddle%3Bresizable%3D0%3Bpoints%3D%5B%5D%3BfontSize%3D14%3B%22%20vertex%3D%221%22%20connectable%3D%220%22%20parent%3D%221%22%3E%3CmxGeometry%20x%3D%22614.7142857142858%22%20y%3D%22565.2%22%20as%3D%22geometry%22%2F%3E%3C%2FmxCell%3E%3C%2Froot%3E%3C%2FmxGraphModel%3E&lt;/span&gt;&lt;span style=&quot;color: rgba(0, 0, 0, 0); font-family: monospace; font-size: 0px; text-align: start; background-color: rgb(248, 249, 250);&quot;&gt;%3CmxGraphModel%3E%3Croot%3E%3CmxCell%20id%3D%220%22%2F%3E%3CmxCell%20id%3D%221%22%20parent%3D%220%22%2F%3E%3CmxCell%20id%3D%222%22%20value%3D%22Copy%26lt%3Bbr%26gt%3B%26amp%3Bnbsp%3Bdata%20to%20SQL%22%20style%3D%22edgeLabel%3Bhtml%3D1%3Balign%3Dcenter%3BverticalAlign%3Dmiddle%3Bresizable%3D0%3Bpoints%3D%5B%5D%3BfontSize%3D14%3B%22%20vertex%3D%221%22%20connectable%3D%220%22%20parent%3D%221%22%3E%3CmxGeometry%20x%3D%22614.7142857142858%22%20y%3D%22565.2%22%20as%3D%22geometry%22%2F%3E%3C%2FmxCell%3E%3C%2Froot%3E%3C%2FmxGraphModel%3&lt;/span&gt;" style="edgeLabel;html=1;align=center;verticalAlign=middle;resizable=0;points=[];fontSize=14;" vertex="1" connectable="0" parent="N7lQgFKjf1Fr5pA0-zuc-26">
          <mxGeometry x="0.1898" y="-1" relative="1" as="geometry">
            <mxPoint as="offset" />
          </mxGeometry>
        </mxCell>
        <mxCell id="N7lQgFKjf1Fr5pA0-zuc-28" value="Copy data to &lt;br&gt;SQL" style="edgeLabel;html=1;align=center;verticalAlign=middle;resizable=0;points=[];fontSize=14;" vertex="1" connectable="0" parent="N7lQgFKjf1Fr5pA0-zuc-26">
          <mxGeometry x="-0.2212" y="-3" relative="1" as="geometry">
            <mxPoint x="25" as="offset" />
          </mxGeometry>
        </mxCell>
        <mxCell id="N7lQgFKjf1Fr5pA0-zuc-25" value="" style="aspect=fixed;html=1;points=[];align=center;image;fontSize=12;image=img/lib/azure2/databases/Data_Factory.svg;labelBorderColor=none;strokeColor=#82B366;strokeWidth=4;" vertex="1" parent="1">
          <mxGeometry x="430" y="863.4" width="68" height="68" as="geometry" />
        </mxCell>
        <mxCell id="N7lQgFKjf1Fr5pA0-zuc-35" style="edgeStyle=orthogonalEdgeStyle;rounded=0;orthogonalLoop=1;jettySize=auto;html=1;fontSize=14;" edge="1" parent="1" source="N7lQgFKjf1Fr5pA0-zuc-32">
          <mxGeometry relative="1" as="geometry">
            <mxPoint x="172" y="910" as="targetPoint" />
            <Array as="points">
              <mxPoint x="62" y="180" />
              <mxPoint x="62" y="910" />
              <mxPoint x="112" y="910" />
            </Array>
          </mxGeometry>
        </mxCell>
        <mxCell id="N7lQgFKjf1Fr5pA0-zuc-36" value="Push the&amp;nbsp;&lt;br&gt;data into cloud&lt;br&gt;Storage" style="edgeLabel;html=1;align=center;verticalAlign=middle;resizable=0;points=[];fontSize=14;" vertex="1" connectable="0" parent="N7lQgFKjf1Fr5pA0-zuc-35">
          <mxGeometry x="0.2529" y="-3" relative="1" as="geometry">
            <mxPoint x="23" y="78" as="offset" />
          </mxGeometry>
        </mxCell>
        <mxCell id="N7lQgFKjf1Fr5pA0-zuc-32" value="Automate flow" style="aspect=fixed;html=1;points=[];align=center;image;fontSize=12;image=img/lib/azure2/general/Workflow.svg;labelBorderColor=none;strokeColor=#82B366;strokeWidth=4;" vertex="1" parent="1">
          <mxGeometry x="370.2" y="140" width="77.72" height="80" as="geometry" />
        </mxCell>
      </root>
    </mxGraphModel>
  </diagram>
</mxfile>
